HIERARCHY
ROOT Hips
{
	OFFSET 55.021198 -16.914314 85.513496
	CHANNELS 6 Xposition Yposition Zposition Xrotation Yrotation Zrotation
	JOINT spine
	{
		OFFSET 0.000000 -0.367607 6.392601
		CHANNELS 3 Xrotation Yrotation Zrotation
		JOINT spine1
		{
			OFFSET 0.000000 -0.000002 9.176109
			CHANNELS 3 Xrotation Yrotation Zrotation
			JOINT spine2
			{
				OFFSET 0.000000 0.000000 8.792381
				CHANNELS 3 Xrotation Yrotation Zrotation
				JOINT Neck
				{
					OFFSET 0.000000 -1.076244 22.573700
					CHANNELS 3 Xrotation Yrotation Zrotation
					JOINT Head
					{
						OFFSET 0.000000 -0.000002 6.820114
						CHANNELS 3 Xrotation Yrotation Zrotation
						End Site
						{
							OFFSET 0.000000 5.444267 16.508499
						}
					}
				}
				JOINT RightShoulder
				{
					OFFSET -3.702209 0.515507 9.495087
					CHANNELS 3 Xrotation Yrotation Zrotation
					JOINT RightArm
					{
						OFFSET 0.000000 -0.000002 12.453705
						CHANNELS 3 Xrotation Yrotation Zrotation
						JOINT RightArmRoll
						{
							OFFSET 0.000000 -0.000002 6.286865
							CHANNELS 3 Xrotation Yrotation Zrotation
							JOINT RightForeArm
							{
								OFFSET 0.000000 -0.000002 18.311401
								CHANNELS 3 Xrotation Yrotation Zrotation
								JOINT RightForeArmRoll
								{
									OFFSET 0.000000 -0.000002 7.054825
									CHANNELS 3 Xrotation Yrotation Zrotation
									JOINT RightHand
									{
										OFFSET 0.000000 -0.000002 14.157501
										CHANNELS 3 Xrotation Yrotation Zrotation
										End Site
										{
											OFFSET 0.000000 0.000000 0.100006
										}
									}
								}
							}
						}
					}
				}
				JOINT LeftShoulder
				{
					OFFSET 3.702209 0.515507 9.495087
					CHANNELS 3 Xrotation Yrotation Zrotation
					JOINT LeftArm
					{
						OFFSET 0.000000 -0.000002 12.453705
						CHANNELS 3 Xrotation Yrotation Zrotation
						JOINT LeftArmRoll
						{
							OFFSET 0.000000 -0.000002 6.286865
							CHANNELS 3 Xrotation Yrotation Zrotation
							JOINT LeftForeArm
							{
								OFFSET 0.000000 -0.000002 18.311401
								CHANNELS 3 Xrotation Yrotation Zrotation
								JOINT LeftForeArmRoll
								{
									OFFSET 0.000000 -0.000002 7.054825
									CHANNELS 3 Xrotation Yrotation Zrotation
									JOINT LeftHand
									{
										OFFSET 0.000000 -0.000002 14.157501
										CHANNELS 3 Xrotation Yrotation Zrotation
										End Site
										{
											OFFSET 0.000000 0.000000 0.100006
										}
									}
								}
							}
						}
					}
				}
			}
		}
	}
	JOINT RightUpLeg
	{
		OFFSET -5.666149 0.871611 -1.039032
		CHANNELS 3 Xrotation Yrotation Zrotation
		JOINT RightUpLegRoll
		{
			OFFSET 0.000000 -0.000004 16.600502
			CHANNELS 3 Xrotation Yrotation Zrotation
			JOINT RightLeg
			{
				OFFSET 0.000000 0.000004 -20.557198
				CHANNELS 3 Xrotation Yrotation Zrotation
				JOINT RightLegRoll
				{
					OFFSET 0.000000 -0.000004 20.624397
					CHANNELS 3 Xrotation Yrotation Zrotation
					JOINT RightFoot
					{
						OFFSET 0.000000 -0.000002 17.166397
						CHANNELS 3 Xrotation Yrotation Zrotation
						JOINT RightToeBase
						{
							OFFSET 0.000000 -0.000002 14.350204
							CHANNELS 3 Xrotation Yrotation Zrotation
							End Site
							{
								OFFSET 0.006081 0.801059 6.949707
							}
						}
					}
				}
			}
		}
	}
	JOINT LeftUpLeg
	{
		OFFSET 5.666149 0.871611 -1.039032
		CHANNELS 3 Xrotation Yrotation Zrotation
		JOINT LeftUpLegRoll
		{
			OFFSET 0.000000 -0.000004 16.600601
			CHANNELS 3 Xrotation Yrotation Zrotation
			JOINT LeftLeg
			{
				OFFSET 0.000000 -0.000002 20.557098
				CHANNELS 3 Xrotation Yrotation Zrotation
				JOINT LeftLegRoll
				{
					OFFSET 0.000000 -0.000004 20.815102
					CHANNELS 3 Xrotation Yrotation Zrotation
					JOINT LeftFoot
					{
						OFFSET 0.000000 -0.000004 16.975708
						CHANNELS 3 Xrotation Yrotation Zrotation
						JOINT LeftToeBase
						{
							OFFSET 0.000000 -0.000002 14.350204
							CHANNELS 3 Xrotation Yrotation Zrotation
							End Site
							{
								OFFSET -0.027260 0.801060 6.949707
							}
						}
					}
				}
			}
		}
	}
}
MOTION
Frames: 4
Frame Time: 0.041667
56.791508 -15.745214 85.609200 -4.322581 2.101111 -28.925018 -0.874555 0.182342 -0.077929 2.267611 0.341024 -0.162164 3.912699 0.338974 -0.166278 9.682471 1.904930 8.636599 3.782256 4.725340 7.892322 0.543110 -59.515065 0.580404 -39.289960 -114.493696 -32.440045 0.000000 -0.000021 0.000001 6.777163 -13.567599 0.372659 -0.000005 0.000005 -3.011700 -5.000222 -7.998715 0.000169 -4.785165 57.662260 5.507189 -37.914838 115.204801 34.435959 -0.000006 0.000007 0.000015 6.212289 10.367102 0.007718 -0.000006 -0.000003 2.999988 -5.000226 7.998775 -0.000161 4.290036 -172.788049 3.177400 -179.999991 0.000005 -1.230004 171.093589 -3.006369 -0.677910 0.000004 0.000001 0.201614 71.561900 6.857796 2.016859 25.763069 -7.347956 0.456441 0.606233 171.678458 -1.295962 -0.000005 -0.000004 -1.101549 -6.824459 0.656883 0.655071 0.000001 -0.000004 0.079624 68.539944 -6.312893 -3.628230 25.456930 7.350267 -0.000012 
56.794209 -15.746916 85.610008 -4.315560 2.099058 -28.919434 -0.874977 0.182302 -0.079354 2.265791 0.340805 -0.165728 3.910868 0.338719 -0.169836 9.683857 1.912680 8.643817 3.779991 4.720573 7.899301 0.568710 -59.516267 0.610210 -39.292118 -114.487139 -32.443289 0.000000 -0.000021 0.000001 6.772728 -13.570502 0.372760 -0.000003 0.000005 -3.011700 -5.000223 -7.998713 0.000169 -4.802709 57.663387 5.528128 -37.917898 115.205730 34.441338 -0.000004 0.000006 0.000016 6.215138 10.368838 0.007351 -0.000007 -0.000002 2.999989 -5.000227 7.998776 -0.000158 4.283981 -172.790986 3.174912 -179.999991 0.000005 -1.229998 171.097263 -3.007399 -0.677872 0.000004 0.000001 0.201609 71.558799 6.857798 2.016847 25.763173 -7.347961 0.456221 0.595808 171.676450 -1.296380 -0.000005 -0.000004 -1.101597 -6.826394 0.658824 0.655033 0.000000 -0.000004 0.079615 68.537711 -6.313471 -3.627969 25.456930 7.350266 -0.000010 
56.793507 -15.745212 85.608406 -4.307808 2.096996 -28.913775 -0.875495 0.182242 -0.080839 2.263740 0.340483 -0.169459 3.908819 0.338358 -0.173557 9.685032 1.920383 8.651317 3.777853 4.715907 7.906546 0.595050 -59.517749 0.640861 -39.296035 -114.479926 -32.448217 0.000002 -0.000021 0.000002 6.767473 -13.573526 0.372787 -0.000004 0.000005 -3.011700 -5.000220 -7.998715 0.000167 -4.821034 57.664398 5.549994 -37.922669 115.205976 34.448452 -0.000004 0.000006 0.000014 6.217508 10.370382 0.007034 -0.000005 -0.000002 2.999989 -5.000220 7.998776 -0.000163 4.277583 -172.793937 3.172040 -179.999991 0.000006 -1.230002 171.101744 -3.007436 -0.677638 0.000005 0.000001 0.201611 71.555056 6.857807 2.016980 25.763269 -7.347952 0.456034 0.584800 171.674428 -1.297186 -0.000005 -0.000004 -1.101689 -6.828336 0.661156 0.654982 0.000000 -0.000004 0.079591 68.535190 -6.314176 -3.627346 25.456930 7.350265 -0.000009 
56.789303 -15.748912 85.608101 -4.299570 2.094923 -28.908038 -0.876076 0.182169 -0.082356 2.261530 0.340090 -0.173300 3.906619 0.337926 -0.177396 9.686056 1.928046 8.659000 3.775787 4.711317 7.913991 0.621900 -59.519327 0.672098 -39.300164 -114.472782 -32.453203 0.000001 -0.000019 0.000001 6.761642 -13.576468 0.372757 -0.000004 0.000005 -3.011700 -5.000224 -7.998712 0.000169 -4.839882 57.665382 5.572487 -37.926118 115.207014 34.454097 -0.000003 0.000007 0.000014 6.219545 10.372034 0.006739 -0.000003 -0.000002 2.999989 -5.000224 7.998773 -0.000162 4.270944 -172.797830 3.168812 -179.999991 0.000005 -1.230000 171.106771 -3.007477 -0.677373 0.000005 0.000000 0.201616 71.550992 6.857789 2.017031 25.763369 -7.347953 0.455868 0.573384 171.671409 -1.298265 -0.000005 -0.000004 -1.101787 -6.830300 0.663763 0.654918 0.000001 -0.000004 0.079558 68.532595 -6.314974 -3.626445 25.456933 7.350265 -0.000011 
